<svg width="25" height="25" viewBox="0 0 25 25" fill="none" xmlns="http://www.w3.org/2000/svg">
<path fill-rule="evenodd" clip-rule="evenodd" d="M5.97925 15.2584C8.19619 16.8416 10.499 17.6784 12.6386 17.6784C14.7783 17.6784 17.0811 16.8415 19.298 15.2584C20.9553 14.075 21.9781 12.9024 22.0209 12.8531C22.196 12.6509 22.196 12.3508 22.0209 12.1486C21.9781 12.0992 20.9552 10.9267 19.298 9.74323C17.0811 8.16015 14.7782 7.32333 12.6386 7.32333C10.499 7.32333 8.19624 8.1602 5.97925 9.74323C4.32193 10.9267 3.29907 12.0992 3.25633 12.1486C3.08122 12.3508 3.08122 12.6509 3.25633 12.8531C3.29907 12.9025 4.32197 14.075 5.97925 15.2584ZM6.62586 14.3979C5.59508 13.6644 4.81439 12.9227 4.40074 12.5009C4.81448 12.079 5.59521 11.3373 6.62586 10.6039C8.039 9.5983 10.2293 8.39952 12.6386 8.39952C15.048 8.39952 17.2382 9.5983 18.6513 10.6039C19.6821 11.3374 20.4629 12.0791 20.8765 12.5009C20.4627 12.9227 19.682 13.6645 18.6513 14.3979C17.2382 15.4034 15.048 16.6023 12.6386 16.6023C10.2293 16.6023 8.039 15.4034 6.62586 14.3979Z" fill="#666666"/>
<ellipse cx="12.7403" cy="12.5" rx="3.20513" ry="3.20513" fill="#666666"/>
<path d="M15.4189 12.649C14.8255 12.649 14.3428 12.1663 14.3428 11.5729C14.3428 10.9795 14.8255 10.4968 15.4189 10.4968C16.0123 10.4968 16.495 10.9795 16.495 11.5729C16.495 12.1663 16.0123 12.649 15.4189 12.649Z" fill="white"/>
</svg>
